NotoSansDisplay-LightItalic.ufo
<glyph name="Eth" format="2">
  <advance width="642"/>
  <unicode hex="00D0"/>
  <anchor x="248" y="0" name="bottom"/>
  <anchor x="397" y="714" name="top"/>
  <anchor x="345" y="357" name="center"/>
  <anchor x="712" y="714" name="topright"/>
  <outline>
    <contour>
      <point x="337" y="368" type="line"/>
      <point x="50" y="368" type="line"/>
      <point x="45" y="343" type="line"/>
      <point x="330" y="343" type="line"/>
    </contour>
    <component base="D"/>
  </outline>
</glyph>
<glyph name="uni0191" format="2">
  <advance width="532"/>
  <unicode hex="0191"/>
  <anchor x="51" y="0" name="bottom"/>
  <anchor x="450" y="714" name="top"/>
  <anchor x="622" y="714" name="topright"/>
  <outline>
    <contour>
      <point x="71" y="-11" type="curve" smooth="yes"/>
      <point x="139" y="-11"/>
      <point x="174" y="41"/>
      <point x="193" y="133" type="curve" smooth="yes"/>
      <point x="240" y="363" type="line"/>
      <point x="517" y="363" type="line"/>
      <point x="523" y="388" type="line"/>
      <point x="246" y="388" type="line"/>
      <point x="310" y="689" type="line"/>
      <point x="604" y="689" type="line"/>
      <point x="609" y="714" type="line"/>
      <point x="288" y="714" type="line"/>
      <point x="166" y="135" type="line" smooth="yes"/>
      <point x="150" y="57"/>
      <point x="121" y="14"/>
      <point x="69" y="14" type="curve" smooth="yes"/>
      <point x="16" y="14"/>
      <point x="-14" y="52"/>
      <point x="-14" y="109" type="curve" smooth="yes"/>
      <point x="-14" y="131"/>
      <point x="-8" y="158"/>
      <point x="-1" y="174" type="curve"/>
      <point x="-27" y="184" type="line"/>
      <point x="-34" y="168"/>
      <point x="-41" y="137"/>
      <point x="-41" y="111" type="curve" smooth="yes"/>
      <point x="-41" y="38"/>
      <point x="1" y="-11"/>
    </contour>
  </outline>
</glyph>
<glyph name="florin" format="2">
  <advance width="339"/>
  <unicode hex="0192"/>
  <anchor x="46" y="0" name="bottom"/>
  <anchor x="416" y="765" name="top"/>
  <anchor x="516" y="765" name="topright"/>
  <outline>
    <contour>
      <point x="53" y="-15" type="curve" smooth="yes"/>
      <point x="133" y="-15"/>
      <point x="165" y="50"/>
      <point x="186" y="151" type="curve" smooth="yes"/>
      <point x="261" y="503" type="line"/>
      <point x="375" y="503" type="line"/>
      <point x="380" y="528" type="line"/>
      <point x="266" y="528" type="line"/>
      <point x="282" y="605" type="line" smooth="yes"/>
      <point x="301" y="698"/>
      <point x="339" y="740"/>
      <point x="415" y="740" type="curve" smooth="yes"/>
      <point x="438" y="740"/>
      <point x="460" y="736"/>
      <point x="480" y="727" type="curve"/>
      <point x="488" y="752" type="line"/>
      <point x="470" y="759"/>
      <point x="445" y="765"/>
      <point x="416" y="765" type="curve" smooth="yes"/>
      <point x="323" y="765"/>
      <point x="278" y="707"/>
      <point x="257" y="609" type="curve" smooth="yes"/>
      <point x="240" y="528" type="line"/>
      <point x="150" y="525" type="line"/>
      <point x="146" y="503" type="line"/>
      <point x="234" y="503" type="line"/>
      <point x="161" y="158" type="line" smooth="yes"/>
      <point x="142" y="69"/>
      <point x="115" y="10"/>
      <point x="51" y="10" type="curve" smooth="yes"/>
      <point x="14" y="10"/>
      <point x="-16" y="34"/>
      <point x="-16" y="77" type="curve" smooth="yes"/>
      <point x="-16" y="107"/>
      <point x="-8" y="130"/>
      <point x="1" y="152" type="curve"/>
      <point x="-25" y="162" type="line"/>
      <point x="-34" y="141"/>
      <point x="-43" y="113"/>
      <point x="-43" y="79" type="curve" smooth="yes"/>
      <point x="-43" y="19"/>
      <point x="-2" y="-15"/>
    </contour>
  </outline>
</glyph>
<glyph name="uni023B" format="2">
  <advance width="564"/>
  <unicode hex="023B"/>
  <anchor x="259" y="-75" name="bottom"/>
  <anchor x="447" y="760" name="top"/>
  <anchor x="649" y="714" name="topright"/>
  <outline>
    <contour>
      <point x="131" y="-75" type="line"/>
      <point x="155" y="-75" type="line"/>
      <point x="595" y="760" type="line"/>
      <point x="572" y="760" type="line"/>
    </contour>
    <component base="C" xOffset="5"/>
  </outline>
</glyph>
<glyph name="uni0289" format="2">
  <advance width="526"/>
  <unicode hex="0289"/>
  <anchor x="195" y="0" name="bottom"/>
  <anchor x="307" y="528" name="top"/>
  <anchor x="550" y="528" name="topright"/>
  <outline>
    <contour>
      <point x="7" y="280" type="line"/>
      <point x="541" y="280" type="line"/>
      <point x="547" y="305" type="line"/>
      <point x="13" y="305" type="line"/>
    </contour>
    <component base="u" xOffset="8"/>
  </outline>
</glyph>
<glyph name="kturned" format="2">
  <advance width="423"/>
  <unicode hex="029E"/>
  <anchor x="109" y="-232" name="bottom"/>
  <anchor x="270" y="528" name="top"/>
  <outline>
    <contour>
      <point x="220" y="-232" type="line"/>
      <point x="246" y="-232" type="line"/>
      <point x="408" y="528" type="line"/>
      <point x="381" y="528" type="line"/>
      <point x="345" y="356" type="line"/>
      <point x="232" y="247" type="line"/>
      <point x="101" y="528" type="line"/>
      <point x="72" y="528" type="line"/>
      <point x="213" y="230" type="line"/>
      <point x="-22" y="0" type="line"/>
      <point x="11" y="0" type="line"/>
      <point x="340" y="324" type="line"/>
      <point x="341" y="324" type="line"/>
      <point x="325" y="261"/>
      <point x="314" y="210"/>
      <point x="300" y="144" type="curve" smooth="yes"/>
    </contour>
  </outline>
</glyph>
<glyph name="doublemacroncomb" format="2">
  <unicode hex="035E"/>
  <anchor x="202" y="528" name="_top"/>
  <anchor x="225" y="633" name="top"/>
  <outline>
    <contour>
      <point x="-7" y="608" type="line"/>
      <point x="446" y="608" type="line"/>
      <point x="452" y="633" type="line"/>
      <point x="-2" y="633" type="line"/>
    </contour>
  </outline>
</glyph>
<glyph name="tildedoublecomb" format="2">
  <unicode hex="0360"/>
  <anchor x="307" y="528" name="_top"/>
  <anchor x="345" y="710" name="top"/>
  <outline>
    <contour>
      <point x="18" y="615" type="curve"/>
      <point x="50" y="615" type="line"/>
      <point x="69" y="652"/>
      <point x="119" y="684"/>
      <point x="193" y="684" type="curve" smooth="yes"/>
      <point x="305" y="684"/>
      <point x="331" y="612"/>
      <point x="474" y="612" type="curve" smooth="yes"/>
      <point x="555" y="612"/>
      <point x="611" y="641"/>
      <point x="651" y="709" type="curve"/>
      <point x="620" y="709" type="line"/>
      <point x="602" y="674"/>
      <point x="564" y="638"/>
      <point x="477" y="638" type="curve" smooth="yes"/>
      <point x="348" y="638"/>
      <point x="317" y="710"/>
      <point x="200" y="710" type="curve" smooth="yes"/>
      <point x="116" y="710"/>
      <point x="57" y="682"/>
    </contour>
  </outline>
</glyph>
<glyph name="arrowdoublerightbelowcomb" format="2">
  <unicode hex="0362"/>
  <anchor x="197" y="0" name="_bottom"/>
  <anchor x="157" y="-187" name="bottom"/>
  <outline>
    <contour>
      <point x="434" y="-187" type="line"/>
      <point x="511" y="-129" type="line"/>
      <point x="435" y="-69" type="line"/>
      <point x="435" y="-115" type="line"/>
      <point x="-165" y="-115" type="line"/>
      <point x="-172" y="-139" type="line"/>
      <point x="435" y="-139" type="line"/>
    </contour>
  </outline>
</glyph>
<glyph name="uni0463" format="2">
  <advance width="472"/>
  <unicode hex="0463"/>
  <anchor x="171" y="0" name="bottom"/>
  <anchor x="308" y="644" name="top"/>
  <outline>
    <contour>
      <point x="227" y="-10" type="curve" smooth="yes"/>
      <point x="346" y="-10"/>
      <point x="406" y="66"/>
      <point x="406" y="161" type="curve" smooth="yes"/>
      <point x="406" y="239"/>
      <point x="364" y="295"/>
      <point x="250" y="295" type="curve" smooth="yes"/>
      <point x="201" y="295"/>
      <point x="146" y="285"/>
      <point x="118" y="279" type="curve"/>
      <point x="166" y="504" type="line"/>
      <point x="298" y="504" type="line"/>
      <point x="303" y="529" type="line"/>
      <point x="171" y="529" type="line"/>
      <point x="196" y="644" type="line"/>
      <point x="170" y="644" type="line"/>
      <point x="145" y="529" type="line"/>
      <point x="39" y="529" type="line"/>
      <point x="34" y="504" type="line"/>
      <point x="140" y="504" type="line"/>
      <point x="88" y="263" type="line" smooth="yes"/>
      <point x="80" y="226"/>
      <point x="72" y="183"/>
      <point x="72" y="144" type="curve" smooth="yes"/>
      <point x="72" y="51"/>
      <point x="122" y="-10"/>
    </contour>
    <contour>
      <point x="228" y="16" type="curve" smooth="yes"/>
      <point x="138" y="16"/>
      <point x="99" y="68"/>
      <point x="99" y="147" type="curve" smooth="yes"/>
      <point x="99" y="180"/>
      <point x="103" y="211"/>
      <point x="112" y="251" type="curve"/>
      <point x="145" y="257"/>
      <point x="192" y="270"/>
      <point x="247" y="270" type="curve" smooth="yes"/>
      <point x="344" y="270"/>
      <point x="379" y="223"/>
      <point x="379" y="159" type="curve" smooth="yes"/>
      <point x="379" y="79"/>
      <point x="329" y="16"/>
    </contour>
  </outline>
</glyph>
<glyph name="uni0488" format="2">
  <advance width="939"/>
  <unicode hex="0488"/>
  <outline>
    <contour>
      <point x="649" y="470" type="curve"/>
      <point x="670" y="470" type="line"/>
      <point x="676" y="510"/>
      <point x="699" y="529"/>
      <point x="739" y="529" type="curve" smooth="yes"/>
      <point x="773" y="529"/>
      <point x="800" y="505"/>
      <point x="806" y="470" type="curve"/>
      <point x="829" y="470" type="line"/>
      <point x="823" y="520"/>
      <point x="790" y="549"/>
      <point x="739" y="549" type="curve" smooth="yes"/>
      <point x="684" y="549"/>
      <point x="655" y="523"/>
    </contour>
    <contour>
      <point x="109" y="-12" type="curve"/>
      <point x="130" y="-12" type="line"/>
      <point x="136" y="28"/>
      <point x="159" y="47"/>
      <point x="199" y="47" type="curve" smooth="yes"/>
      <point x="233" y="47"/>
      <point x="260" y="23"/>
      <point x="266" y="-12" type="curve"/>
      <point x="289" y="-12" type="line"/>
      <point x="283" y="39"/>
      <point x="251" y="67"/>
      <point x="199" y="67" type="curve" smooth="yes"/>
      <point x="144" y="67"/>
      <point x="115" y="41"/>
    </contour>
    <contour>
      <point x="374" y="-148" type="curve"/>
      <point x="394" y="-148" type="line"/>
      <point x="401" y="-109"/>
      <point x="424" y="-89"/>
      <point x="463" y="-89" type="curve" smooth="yes"/>
      <point x="498" y="-89"/>
      <point x="525" y="-113"/>
      <point x="531" y="-148" type="curve"/>
      <point x="553" y="-148" type="line"/>
      <point x="548" y="-98"/>
      <point x="515" y="-69"/>
      <point x="463" y="-69" type="curve" smooth="yes"/>
      <point x="411" y="-69"/>
      <point x="381" y="-95"/>
    </contour>
    <contour>
      <point x="29" y="232" type="curve"/>
      <point x="50" y="232" type="line"/>
      <point x="56" y="271"/>
      <point x="80" y="291"/>
      <point x="119" y="291" type="curve" smooth="yes"/>
      <point x="156" y="291"/>
      <point x="182" y="268"/>
      <point x="186" y="232" type="curve"/>
      <point x="209" y="232" type="line"/>
      <point x="203" y="282"/>
      <point x="170" y="311"/>
      <point x="119" y="311" type="curve" smooth="yes"/>
      <point x="64" y="311"/>
      <point x="35" y="285"/>
    </contour>
    <contour>
      <point x="114" y="470" type="curve"/>
      <point x="135" y="470" type="line"/>
      <point x="141" y="510"/>
      <point x="164" y="529"/>
      <point x="204" y="529" type="curve" smooth="yes"/>
      <point x="238" y="529"/>
      <point x="265" y="505"/>
      <point x="271" y="470" type="curve"/>
      <point x="294" y="470" type="line"/>
      <point x="288" y="520"/>
      <point x="255" y="549"/>
      <point x="204" y="549" type="curve" smooth="yes"/>
      <point x="149" y="549"/>
      <point x="120" y="523"/>
    </contour>
    <contour>
      <point x="644" y="-12" type="curve"/>
      <point x="665" y="-12" type="line"/>
      <point x="671" y="28"/>
      <point x="693" y="47"/>
      <point x="733" y="47" type="curve" smooth="yes"/>
      <point x="768" y="47"/>
      <point x="795" y="23"/>
      <point x="801" y="-12" type="curve"/>
      <point x="823" y="-12" type="line"/>
      <point x="818" y="39"/>
      <point x="786" y="67"/>
      <point x="734" y="67" type="curve" smooth="yes"/>
      <point x="679" y="67"/>
      <point x="650" y="41"/>
    </contour>
    <contour>
      <point x="735" y="232" type="curve"/>
      <point x="755" y="232" type="line"/>
      <point x="762" y="271"/>
      <point x="785" y="291"/>
      <point x="824" y="291" type="curve" smooth="yes"/>
      <point x="859" y="291"/>
      <point x="886" y="267"/>
      <point x="892" y="232" type="curve"/>
      <point x="914" y="232" type="line"/>
      <point x="909" y="281"/>
      <point x="875" y="311"/>
      <point x="825" y="311" type="curve" smooth="yes"/>
      <point x="770" y="311"/>
      <point x="742" y="286"/>
    </contour>
    <contour>
      <point x="382" y="609" type="curve"/>
      <point x="402" y="609" type="line"/>
      <point x="409" y="648"/>
      <point x="432" y="668"/>
      <point x="471" y="668" type="curve" smooth="yes"/>
      <point x="506" y="668"/>
      <point x="533" y="644"/>
      <point x="539" y="609" type="curve"/>
      <point x="561" y="609" type="line"/>
      <point x="554" y="660"/>
      <point x="523" y="688"/>
      <point x="471" y="688" type="curve" smooth="yes"/>
      <point x="417" y="688"/>
      <point x="389" y="663"/>
    </contour>
  </outline>
</glyph>
<glyph name="uni0489" format="2">
  <advance width="909"/>
  <unicode hex="0489"/>
  <outline>
    <contour>
      <point x="665" y="468" type="line"/>
      <point x="701" y="499"/>
      <point x="756" y="536"/>
      <point x="807" y="561" type="curve"/>
      <point x="791" y="578" type="line"/>
      <point x="738" y="557"/>
      <point x="682" y="523"/>
      <point x="647" y="497" type="curve"/>
      <point x="645" y="488" type="line"/>
    </contour>
    <contour>
      <point x="140" y="-38" type="line"/>
      <point x="192" y="-17"/>
      <point x="249" y="17"/>
      <point x="283" y="43" type="curve"/>
      <point x="285" y="52" type="line"/>
      <point x="266" y="72" type="line"/>
      <point x="229" y="41"/>
      <point x="175" y="4"/>
      <point x="123" y="-21" type="curve"/>
    </contour>
    <contour>
      <point x="185" y="244" type="curve"/>
      <point x="192" y="249" type="line"/>
      <point x="192" y="277" type="line"/>
      <point x="147" y="282"/>
      <point x="83" y="297"/>
      <point x="30" y="317" type="curve"/>
      <point x="30" y="293" type="line"/>
      <point x="81" y="269"/>
      <point x="142" y="251"/>
    </contour>
    <contour>
      <point x="416" y="-188" type="curve"/>
      <point x="439" y="-188" type="line"/>
      <point x="463" y="-134"/>
      <point x="481" y="-69"/>
      <point x="488" y="-24" type="curve"/>
      <point x="483" y="-17" type="line"/>
      <point x="456" y="-17" type="line"/>
      <point x="451" y="-65"/>
      <point x="436" y="-132"/>
    </contour>
    <contour>
      <point x="737" y="-87" type="curve"/>
      <point x="754" y="-70" type="line"/>
      <point x="735" y="-15"/>
      <point x="704" y="44"/>
      <point x="679" y="81" type="curve"/>
      <point x="671" y="82" type="line"/>
      <point x="651" y="62" type="line"/>
      <point x="680" y="25"/>
      <point x="714" y="-33"/>
    </contour>
    <contour>
      <point x="259" y="458" type="line"/>
      <point x="279" y="478" type="line"/>
      <point x="251" y="515"/>
      <point x="217" y="573"/>
      <point x="193" y="627" type="curve"/>
      <point x="177" y="610" type="line"/>
      <point x="196" y="555"/>
      <point x="226" y="496"/>
      <point x="252" y="459" type="curve"/>
    </contour>
    <contour>
      <point x="900" y="224" type="curve"/>
      <point x="901" y="248" type="line"/>
      <point x="850" y="272"/>
      <point x="788" y="290"/>
      <point x="745" y="297" type="curve"/>
      <point x="739" y="292" type="line"/>
      <point x="738" y="264" type="line"/>
      <point x="784" y="259"/>
      <point x="847" y="244"/>
    </contour>
    <contour>
      <point x="447" y="557" type="line"/>
      <point x="475" y="557" type="line"/>
      <point x="480" y="605"/>
      <point x="495" y="672"/>
      <point x="515" y="728" type="curve"/>
      <point x="491" y="728" type="line"/>
      <point x="468" y="674"/>
      <point x="450" y="609"/>
      <point x="443" y="564" type="curve"/>
    </contour>
  </outline>
</glyph>
<glyph name="uni04BE" format="2">
  <advance width="716"/>
  <unicode hex="04BE"/>
  <anchor x="350" y="-167" name="bottom"/>
  <anchor x="517" y="714" name="top"/>
  <outline>
    <contour>
      <point x="396" y="-4" type="line"/>
      <point x="370" y="-4" type="line"/>
      <point x="333" y="-167" type="line"/>
      <point x="359" y="-167" type="line"/>
    </contour>
    <component base="uni04BC"/>
  </outline>
</glyph>
<glyph name="uni0512" format="2">
  <advance width="616"/>
  <unicode hex="0512"/>
  <anchor x="222" y="-157" name="bottom"/>
  <anchor x="456" y="714" name="top"/>
  <outline>
    <contour>
      <point x="464" y="25" type="line"/>
      <point x="458" y="0" type="line"/>
      <point x="510" y="0" type="line"/>
      <point x="492" y="-85" type="line" smooth="yes"/>
      <point x="485" y="-117"/>
      <point x="472" y="-132"/>
      <point x="445" y="-132" type="curve" smooth="yes"/>
      <point x="434" y="-132"/>
      <point x="425" y="-130"/>
      <point x="417" y="-127" type="curve"/>
      <point x="417" y="-152" type="line"/>
      <point x="423" y="-155"/>
      <point x="433" y="-157"/>
      <point x="446" y="-157" type="curve" smooth="yes"/>
      <point x="488" y="-157"/>
      <point x="508" y="-129"/>
      <point x="518" y="-85" type="curve" smooth="yes"/>
      <point x="542" y="25" type="line"/>
    </contour>
    <component base="afii10029"/>
  </outline>
</glyph>
<glyph name="uni052E" format="2">
  <advance width="660"/>
  <unicode hex="052E"/>
  <anchor x="232" y="-175" name="bottom"/>
  <anchor x="421" y="714" name="top"/>
  <outline>
    <contour>
      <point x="473" y="-175" type="line"/>
      <point x="498" y="-175" type="line"/>
      <point x="541" y="25" type="line"/>
      <point x="472" y="25" type="line"/>
      <point x="457" y="0" type="line"/>
      <point x="510" y="0" type="line"/>
    </contour>
    <component base="afii10029"/>
  </outline>
</glyph>
<glyph name="uni1D03" format="2">
  <advance width="487"/>
  <unicode hex="1D03"/>
  <anchor x="178" y="0" name="bottom"/>
  <anchor x="290" y="528" name="top"/>
  <outline>
    <contour>
      <point x="36" y="264" type="line"/>
      <point x="472" y="264" type="line"/>
      <point x="478" y="289" type="line"/>
      <point x="41" y="289" type="line"/>
    </contour>
    <component base="uni0299"/>
  </outline>
</glyph>
<glyph name="uni1D24" format="2">
  <advance width="322"/>
  <unicode hex="1D24"/>
  <anchor x="108" y="0" name="bottom"/>
  <anchor x="220" y="528" name="top"/>
  <outline>
    <contour>
      <point x="153" y="-7" type="curve" smooth="yes"/>
      <point x="201" y="-7"/>
      <point x="250" y="6"/>
      <point x="281" y="21" type="curve"/>
      <point x="281" y="47" type="line"/>
      <point x="246" y="30"/>
      <point x="206" y="18"/>
      <point x="157" y="18" type="curve" smooth="yes"/>
      <point x="94" y="18"/>
      <point x="56" y="47"/>
      <point x="56" y="106" type="curve" smooth="yes"/>
      <point x="56" y="177"/>
      <point x="94" y="216"/>
      <point x="203" y="258" type="curve" smooth="yes"/>
      <point x="318" y="302"/>
      <point x="359" y="341"/>
      <point x="359" y="425" type="curve" smooth="yes"/>
      <point x="359" y="496"/>
      <point x="316" y="535"/>
      <point x="241" y="535" type="curve" smooth="yes"/>
      <point x="198" y="535"/>
      <point x="157" y="523"/>
      <point x="123" y="507" type="curve"/>
      <point x="130" y="484" type="line"/>
      <point x="165" y="500"/>
      <point x="199" y="510"/>
      <point x="240" y="510" type="curve" smooth="yes"/>
      <point x="300" y="510"/>
      <point x="332" y="480"/>
      <point x="332" y="423" type="curve" smooth="yes"/>
      <point x="332" y="353"/>
      <point x="302" y="322"/>
      <point x="192" y="279" type="curve" smooth="yes"/>
      <point x="75" y="233"/>
      <point x="29" y="187"/>
      <point x="29" y="103" type="curve" smooth="yes"/>
      <point x="29" y="36"/>
      <point x="73" y="-7"/>
    </contour>
  </outline>
</glyph>
<glyph name="uni1D2F" format="2">
  <advance width="369"/>
  <unicode hex="1D2F"/>
  <anchor x="203.15" y="287.0" name="bottom"/>
  <anchor x="301.95000000000005" y="715.4" name="top"/>
  <anchor x="474.2" y="715.4" name="topright"/>
  <outline>
    <contour>
      <point x="57" y="505" type="line"/>
      <point x="420" y="505" type="line"/>
      <point x="423" y="520" type="line"/>
      <point x="60" y="520" type="line"/>
    </contour>
    <component base="B" xScale="0.65" yScale="0.6" xOffset="53" yOffset="287"/>
  </outline>
</glyph>
<glyph name="uni1D7A" format="2">
  <advance width="827"/>
  <unicode hex="1D7A"/>
  <anchor x="113" y="0" name="bottom_1"/>
  <anchor x="511" y="0" name="bottom_2"/>
  <anchor x="99" y="264" name="center_1"/>
  <anchor x="568" y="264" name="center_2"/>
  <anchor x="185" y="659" name="top_1"/>
  <anchor x="505" y="760" name="top_2"/>
  <anchor x="339" y="830" name="topright_1"/>
  <anchor x="847" y="760" name="topright_2"/>
  <outline>
    <contour>
      <point x="7" y="-75" type="line"/>
      <point x="40" y="-75" type="line"/>
      <point x="819" y="760" type="line"/>
      <point x="786" y="760" type="line"/>
    </contour>
    <component base="t" xOffset="2"/>
    <component base="h" xOffset="301"/>
  </outline>
</glyph>
<glyph name="uni1D7B" format="2">
  <advance width="192"/>
  <unicode hex="1D7B"/>
  <anchor x="43" y="0" name="bottom"/>
  <anchor x="155" y="528" name="top"/>
  <outline>
    <contour>
      <point x="11" y="261" type="line"/>
      <point x="187" y="261" type="line"/>
      <point x="193" y="286" type="line"/>
      <point x="17" y="286" type="line"/>
    </contour>
    <component base="uni026A"/>
  </outline>
</glyph>
<glyph name="uni1D7F" format="2">
  <advance width="555"/>
  <unicode hex="1D7F"/>
  <anchor x="211" y="0" name="bottom"/>
  <anchor x="323" y="528" name="top"/>
  <outline>
    <contour>
      <point x="0" y="260" type="line"/>
      <point x="550" y="260" type="line"/>
      <point x="556" y="282" type="line"/>
      <point x="6" y="282" type="line"/>
    </contour>
    <component base="uni028A"/>
  </outline>
</glyph>
<glyph name="longshighstroke" format="2">
  <advance width="264"/>
  <unicode hex="1E9D"/>
  <anchor x="-76" y="-240" name="bottom"/>
  <anchor x="337" y="765" name="top"/>
  <outline>
    <contour>
      <point x="85" y="574" type="line"/>
      <point x="309" y="574" type="line"/>
      <point x="314" y="598" type="line"/>
      <point x="90" y="598" type="line"/>
    </contour>
    <component base="longs" xOffset="12"/>
  </outline>
</glyph>
<glyph name="ll-middleWelsh" format="2">
  <advance width="436"/>
  <unicode hex="1EFB"/>
  <anchor x="277" y="0" name="bottom"/>
  <anchor x="438" y="760" name="top"/>
  <anchor x="328" y="264" name="center_1"/>
  <anchor x="99" y="264" name="center_2"/>
  <anchor x="511" y="760" name="topright_1"/>
  <anchor x="282" y="760" name="topright_2"/>
  <outline>
    <contour>
      <point x="83" y="608" type="line"/>
      <point x="498" y="608" type="line"/>
      <point x="504" y="633" type="line"/>
      <point x="88" y="633" type="line"/>
    </contour>
    <component base="l" xOffset="229"/>
    <component base="l"/>
  </outline>
</glyph>
<glyph name="uni1FEF" format="2">
  <advance width="515"/>
  <unicode hex="1FEF"/>
  <anchor x="289" y="528" name="_top"/>
  <anchor x="339" y="767" name="top"/>
  <outline>
    <contour>
      <point x="346" y="606" type="curve"/>
      <point x="363" y="606" type="line"/>
      <point x="363" y="617" type="line"/>
      <point x="340" y="662"/>
      <point x="321" y="720"/>
      <point x="312" y="767" type="curve"/>
      <point x="281" y="767" type="line"/>
      <point x="280" y="757" type="line"/>
      <point x="293" y="710"/>
      <point x="319" y="649"/>
    </contour>
  </outline>
</glyph>
<glyph name="uni1FFD" format="2">
  <advance width="270"/>
  <unicode hex="1FFD"/>
  <anchor x="194" y="528" name="_top"/>
  <anchor x="244" y="764" name="top"/>
  <outline>
    <contour>
      <point x="159" y="606" type="line"/>
      <point x="175" y="606" type="line"/>
      <point x="218" y="642"/>
      <point x="269" y="707"/>
      <point x="296" y="754" type="curve"/>
      <point x="296" y="764" type="line"/>
      <point x="262" y="764" type="line"/>
      <point x="240" y="715"/>
      <point x="191" y="650"/>
      <point x="161" y="618" type="curve"/>
    </contour>
  </outline>
</glyph>
<glyph name="bracketrightwithquill" format="2">
  <advance width="304"/>
  <unicode hex="2046"/>
  <outline>
    <contour>
      <point x="29" y="266" type="line"/>
      <point x="205" y="266" type="line"/>
      <point x="209" y="293" type="line"/>
      <point x="35" y="293" type="line"/>
    </contour>
    <component base="bracketright" xOffset="1"/>
  </outline>
</glyph>
<glyph name="plussuperior" format="2">
  <advance width="308"/>
  <unicode hex="207A"/>
  <outline>
    <contour>
      <point x="182" y="341" type="line"/>
      <point x="207" y="341" type="line"/>
      <point x="207" y="447" type="line"/>
      <point x="313" y="447" type="line"/>
      <point x="313" y="472" type="line"/>
      <point x="207" y="472" type="line"/>
      <point x="207" y="579" type="line"/>
      <point x="182" y="579" type="line"/>
      <point x="182" y="472" type="line"/>
      <point x="75" y="472" type="line"/>
      <point x="75" y="447" type="line"/>
      <point x="182" y="447" type="line"/>
    </contour>
  </outline>
</glyph>
<glyph name="parenleftsuperior" format="2">
  <advance width="220"/>
  <unicode hex="207D"/>
  <outline>
    <contour>
      <point x="155" y="224" type="curve"/>
      <point x="181" y="224" type="line"/>
      <point x="143" y="273"/>
      <point x="122" y="337"/>
      <point x="122" y="404" type="curve" smooth="yes"/>
      <point x="122" y="532"/>
      <point x="195" y="666"/>
      <point x="291" y="742" type="curve"/>
      <point x="258" y="742" type="line"/>
      <point x="157" y="653"/>
      <point x="98" y="513"/>
      <point x="98" y="405" type="curve" smooth="yes"/>
      <point x="98" y="313"/>
      <point x="127" y="260"/>
    </contour>
  </outline>
</glyph>
<glyph name="uni20A5" format="2">
  <advance width="801"/>
  <unicode hex="20A5"/>
  <anchor x="357" y="0" name="bottom"/>
  <anchor x="469" y="528" name="top"/>
  <anchor x="849" y="528" name="topright"/>
  <outline>
    <contour>
      <point x="135" y="-110" type="line"/>
      <point x="160" y="-110" type="line"/>
      <point x="647" y="666" type="line"/>
      <point x="621" y="666" type="line"/>
    </contour>
    <component base="m" xOffset="12"/>
  </outline>
</glyph>
<glyph name="response" format="2">
  <advance width="534"/>
  <unicode hex="211F"/>
  <anchor x="214" y="0" name="bottom"/>
  <anchor x="366" y="714" name="top"/>
  <anchor x="614" y="714" name="topright"/>
  <outline>
    <contour>
      <point x="112" y="-145" type="line"/>
      <point x="140" y="-145" type="line"/>
      <point x="523" y="790" type="line"/>
      <point x="302" y="868" type="line"/>
      <point x="293" y="844" type="line"/>
      <point x="487" y="774" type="line"/>
    </contour>
    <component base="R"/>
  </outline>
</glyph>
<glyph name="uni2DF5" format="2">
  <unicode hex="2DF5"/>
  <anchor x="56" y="528" name="_top"/>
  <anchor x="118" y="831" name="top"/>
  <anchor x="296" y="831" name="topright"/>
  <outline>
    <contour>
      <point x="21" y="616" type="curve" smooth="yes"/>
      <point x="45" y="616"/>
      <point x="63" y="621"/>
      <point x="77" y="628" type="curve"/>
      <point x="77" y="638" type="line"/>
      <point x="59" y="630"/>
      <point x="42" y="626"/>
      <point x="22" y="626" type="curve" smooth="yes"/>
      <point x="-24" y="626"/>
      <point x="-48" y="658"/>
      <point x="-48" y="698" type="curve" smooth="yes"/>
      <point x="-48" y="766"/>
      <point x="-5" y="821"/>
      <point x="70" y="821" type="curve" smooth="yes"/>
      <point x="188" y="821" type="line"/>
      <point x="141" y="620" type="line"/>
      <point x="152" y="620" type="line"/>
      <point x="200" y="821" type="line"/>
      <point x="273" y="821" type="line"/>
      <point x="275" y="831" type="line"/>
      <point x="71" y="831" type="line" smooth="yes"/>
      <point x="-16" y="831"/>
      <point x="-60" y="768"/>
      <point x="-60" y="696" type="curve" smooth="yes"/>
      <point x="-60" y="651"/>
      <point x="-31" y="616"/>
    </contour>
  </outline>
</glyph>
<glyph name="uniA643" format="2">
  <advance width="427"/>
  <unicode hex="A643"/>
  <outline>
    <contour>
      <point x="80" y="262" type="line"/>
      <point x="356" y="262" type="line"/>
      <point x="361" y="287" type="line"/>
      <point x="86" y="287" type="line"/>
    </contour>
    <component base="uniA641"/>
  </outline>
</glyph>
<glyph name="uniA650" format="2">
  <advance width="796"/>
  <unicode hex="A650"/>
  <anchor x="396" y="0" name="bottom"/>
  <anchor x="548" y="714" name="top"/>
  <outline>
    <contour>
      <point x="96" y="689" type="line"/>
      <point x="302" y="689" type="line"/>
      <point x="331" y="714" type="line"/>
      <point x="101" y="714" type="line"/>
    </contour>
    <component base="afii10045" xOffset="103"/>
  </outline>
</glyph>
<glyph name="uniA662" format="2">
  <advance width="720"/>
  <unicode hex="A662"/>
  <anchor x="204" y="-175" name="bottom"/>
  <anchor x="447" y="714" name="top"/>
  <outline>
    <contour>
      <point x="416" y="25" type="line"/>
      <point x="442" y="25" type="line"/>
      <point x="582" y="689" type="line"/>
      <point x="809" y="689" type="line"/>
      <point x="814" y="714" type="line"/>
      <point x="562" y="714" type="line"/>
    </contour>
    <component base="afii10021"/>
  </outline>
</glyph>
<glyph name="uniA664" format="2">
  <advance width="747"/>
  <unicode hex="A664"/>
  <anchor x="255" y="0" name="bottom"/>
  <anchor x="456" y="714" name="top"/>
  <outline>
    <contour>
      <point x="609" y="689" type="line"/>
      <point x="836" y="689" type="line"/>
      <point x="841" y="714" type="line"/>
      <point x="583" y="714" type="line"/>
    </contour>
    <component base="afii10029"/>
  </outline>
</glyph>
<glyph name="uniA667" format="2">
  <advance width="745"/>
  <unicode hex="A667"/>
  <anchor x="253" y="0" name="bottom"/>
  <anchor x="365" y="528" name="top"/>
  <outline>
    <contour>
      <point x="563" y="503" type="line"/>
      <point x="784" y="503" type="line"/>
      <point x="789" y="528" type="line"/>
      <point x="569" y="528" type="line"/>
    </contour>
    <component base="afii10078"/>
  </outline>
</glyph>
<glyph name="uniA671" format="2">
  <unicode hex="A671"/>
  <outline>
    <contour>
      <point x="-254" y="603" type="line"/>
      <point x="-231" y="603" type="line"/>
      <point x="-196" y="772" type="line"/>
      <point x="476" y="772" type="line"/>
      <point x="441" y="603" type="line"/>
      <point x="463" y="603" type="line"/>
      <point x="503" y="794" type="line"/>
      <point x="-215" y="794" type="line"/>
    </contour>
    <contour>
      <point x="-437" y="-271" type="line"/>
      <point x="280" y="-271" type="line"/>
      <point x="319" y="-80" type="line"/>
      <point x="297" y="-80" type="line"/>
      <point x="261" y="-249" type="line"/>
      <point x="-411" y="-249" type="line"/>
      <point x="-375" y="-80" type="line"/>
      <point x="-398" y="-80" type="line"/>
    </contour>
  </outline>
</glyph>
<glyph name="uniA672" format="2">
  <unicode hex="A672"/>
  <outline>
    <contour>
      <point x="64" y="592" type="line"/>
      <point x="79" y="592" type="line"/>
      <point x="108" y="733" type="line"/>
      <point x="227" y="733" type="line"/>
      <point x="231" y="752" type="line"/>
      <point x="112" y="752" type="line"/>
      <point x="142" y="893" type="line"/>
      <point x="128" y="893" type="line"/>
      <point x="97" y="752" type="line"/>
      <point x="-19" y="752" type="line"/>
      <point x="-23" y="733" type="line"/>
      <point x="93" y="733" type="line"/>
    </contour>
    <contour>
      <point x="-288" y="-375" type="line"/>
      <point x="-273" y="-375" type="line"/>
      <point x="-209" y="-70" type="line"/>
      <point x="-224" y="-70" type="line"/>
    </contour>
    <contour>
      <point x="-539" y="76" type="line"/>
      <point x="-288" y="76" type="line"/>
      <point x="-284" y="95" type="line"/>
      <point x="-535" y="95" type="line"/>
    </contour>
    <contour>
      <point x="-139" y="-375" type="line"/>
      <point x="-124" y="-375" type="line"/>
      <point x="-60" y="-70" type="line"/>
      <point x="-75" y="-70" type="line"/>
    </contour>
    <contour>
      <point x="10" y="-375" type="line"/>
      <point x="25" y="-375" type="line"/>
      <point x="90" y="-70" type="line"/>
      <point x="75" y="-70" type="line"/>
    </contour>
    <contour>
      <point x="-499" y="261" type="line"/>
      <point x="-248" y="261" type="line"/>
      <point x="-244" y="280" type="line"/>
      <point x="-495" y="280" type="line"/>
    </contour>
    <contour>
      <point x="-462" y="446" type="line"/>
      <point x="-211" y="446" type="line"/>
      <point x="-207" y="465" type="line"/>
      <point x="-458" y="465" type="line"/>
    </contour>
    <contour>
      <point x="219" y="76" type="line"/>
      <point x="470" y="76" type="line"/>
      <point x="474" y="95" type="line"/>
      <point x="223" y="95" type="line"/>
    </contour>
    <contour>
      <point x="258" y="261" type="line"/>
      <point x="509" y="261" type="line"/>
      <point x="513" y="280" type="line"/>
      <point x="261" y="280" type="line"/>
    </contour>
    <contour>
      <point x="296" y="446" type="line"/>
      <point x="547" y="446" type="line"/>
      <point x="551" y="465" type="line"/>
      <point x="300" y="465" type="line"/>
    </contour>
  </outline>
</glyph>
<glyph name="uniA680" format="2">
  <advance width="587"/>
  <unicode hex="A680"/>
  <anchor x="204" y="-175" name="bottom"/>
  <anchor x="447" y="714" name="top"/>
  <outline>
    <contour>
      <point x="321" y="697" type="line"/>
      <point x="347" y="697" type="line"/>
      <point x="395" y="920" type="line"/>
      <point x="369" y="920" type="line"/>
    </contour>
    <component base="afii10021"/>
  </outline>
</glyph>
<glyph name="uniA69A" format="2">
  <advance width="680"/>
  <unicode hex="A69A"/>
  <anchor x="308" y="0" name="bottom"/>
  <anchor x="460" y="714" name="top"/>
  <outline>
    <contour>
      <point x="274" y="5" type="line"/>
      <point x="300" y="5" type="line"/>
      <point x="458" y="711" type="line"/>
      <point x="432" y="711" type="line"/>
    </contour>
    <component base="uni04E8" xOffset="6"/>
  </outline>
</glyph>
<glyph name="uniA741" format="2">
  <advance width="439"/>
  <unicode hex="A741"/>
  <anchor x="164" y="0" name="bottom"/>
  <anchor x="325" y="760" name="top"/>
  <anchor x="537" y="760" name="topright"/>
  <outline>
    <contour>
      <point x="90" y="638" type="line"/>
      <point x="360" y="638" type="line"/>
      <point x="364" y="661" type="line"/>
      <point x="94" y="661" type="line"/>
    </contour>
    <component base="k"/>
  </outline>
</glyph>
<glyph name="uniA748" format="2">
  <advance width="466"/>
  <unicode hex="A748"/>
  <anchor x="191" y="0" name="bottom"/>
  <anchor x="140" y="357" name="center"/>
  <anchor x="210" y="714" name="top"/>
  <anchor x="491" y="714" name="topright"/>
  <outline>
    <contour>
      <point x="93" y="587" type="line"/>
      <point x="320" y="587" type="line"/>
      <point x="325" y="612" type="line"/>
      <point x="98" y="612" type="line"/>
    </contour>
    <component base="L"/>
  </outline>
</glyph>
<glyph name="uniA74B" format="2">
  <advance width="536"/>
  <unicode hex="A74B"/>
  <anchor x="212" y="0" name="bottom"/>
  <anchor x="268" y="264" name="center"/>
  <anchor x="324" y="528" name="top"/>
  <anchor x="572" y="528" name="topright"/>
  <outline>
    <contour>
      <point x="4" y="266" type="line"/>
      <point x="538" y="266" type="line" smooth="yes"/>
      <point x="542" y="289" type="line" smooth="yes"/>
      <point x="8" y="289" type="line"/>
    </contour>
    <component base="o"/>
  </outline>
</glyph>
<glyph name="uniA751" format="2">
  <advance width="539"/>
  <unicode hex="A751"/>
  <anchor x="179" y="-232" name="bottom"/>
  <anchor x="340" y="528" name="top"/>
  <anchor x="575" y="528" name="topright"/>
  <outline>
    <contour>
      <point x="-69" y="-124" type="line"/>
      <point x="181" y="-124" type="line"/>
      <point x="185" y="-101" type="line"/>
      <point x="-65" y="-101" type="line"/>
    </contour>
    <component base="p"/>
  </outline>
</glyph>
<glyph name="uniA752" format="2">
  <advance width="593"/>
  <unicode hex="A752"/>
  <anchor x="275" y="0" name="bottom"/>
  <anchor x="426" y="714" name="top"/>
  <anchor x="673" y="714" name="topright"/>
  <outline>
    <contour>
      <point x="24" y="152" type="curve"/>
      <point x="52" y="152" type="line"/>
      <point x="50" y="159"/>
      <point x="48" y="175"/>
      <point x="48" y="190" type="curve" smooth="yes"/>
      <point x="48" y="265"/>
      <point x="99" y="305"/>
      <point x="165" y="305" type="curve" smooth="yes"/>
      <point x="183" y="305" type="line"/>
      <point x="190" y="330" type="line"/>
      <point x="171" y="330" type="line" smooth="yes"/>
      <point x="86" y="330"/>
      <point x="22" y="285"/>
      <point x="21" y="191" type="curve" smooth="yes"/>
      <point x="21" y="178"/>
      <point x="22" y="162"/>
    </contour>
    <component base="P" xOffset="63"/>
  </outline>
</glyph>
<glyph name="uniA756" format="2">
  <advance width="680"/>
  <unicode hex="A756"/>
  <anchor x="271" y="-130" name="bottom"/>
  <anchor x="438" y="714" name="top"/>
  <anchor x="760" y="714" name="topright"/>
  <outline>
    <contour>
      <point x="300" y="-160" type="line"/>
      <point x="545" y="-41" type="line"/>
      <point x="534" y="-20" type="line"/>
      <point x="289" y="-140" type="line"/>
    </contour>
    <component base="Q"/>
  </outline>
</glyph>
<glyph name="uniA758" format="2">
  <advance width="888"/>
  <unicode hex="A758"/>
  <anchor x="271" y="-130" name="bottom"/>
  <anchor x="438" y="714" name="top"/>
  <anchor x="760" y="714" name="topright"/>
  <outline>
    <contour>
      <point x="299" y="-180" type="line"/>
      <point x="736" y="94" type="line" smooth="yes"/>
      <point x="830" y="154"/>
      <point x="874" y="197"/>
      <point x="874" y="260" type="curve" smooth="yes"/>
      <point x="874" y="321"/>
      <point x="838" y="355"/>
      <point x="776" y="355" type="curve"/>
      <point x="776" y="330" type="line"/>
      <point x="822" y="329"/>
      <point x="847" y="305"/>
      <point x="847" y="261" type="curve" smooth="yes"/>
      <point x="847" y="208"/>
      <point x="807" y="169"/>
      <point x="722" y="116" type="curve" smooth="yes"/>
      <point x="285" y="-157" type="line"/>
    </contour>
    <component base="Q"/>
  </outline>
</glyph>
<glyph name="uniA75C" format="2">
  <advance width="506"/>
  <unicode hex="A75C"/>
  <outline>
    <contour>
      <point x="24" y="160" type="line"/>
      <point x="486" y="160" type="line"/>
      <point x="492" y="185" type="line"/>
      <point x="68" y="185" type="line"/>
      <point x="69" y="188" type="line"/>
      <point x="295" y="359" type="line" smooth="yes"/>
      <point x="402" y="440"/>
      <point x="434" y="498"/>
      <point x="434" y="580" type="curve" smooth="yes"/>
      <point x="434" y="669"/>
      <point x="376" y="721"/>
      <point x="288" y="721" type="curve" smooth="yes"/>
      <point x="219" y="721"/>
      <point x="163" y="688"/>
      <point x="120" y="647" type="curve"/>
      <point x="135" y="627" type="line"/>
      <point x="184" y="673"/>
      <point x="234" y="696"/>
      <point x="287" y="696" type="curve" smooth="yes"/>
      <point x="361" y="696"/>
      <point x="407" y="651"/>
      <point x="407" y="578" type="curve" smooth="yes"/>
      <point x="407" y="505"/>
      <point x="379" y="454"/>
      <point x="269" y="371" type="curve" smooth="yes"/>
      <point x="33" y="192" type="line"/>
    </contour>
    <contour>
      <point x="322" y="0" type="line"/>
      <point x="348" y="0" type="line"/>
      <point x="417" y="322" type="line"/>
      <point x="391" y="322" type="line"/>
    </contour>
  </outline>
</glyph>
<glyph name="uniA75E" format="2">
  <advance width="509"/>
  <unicode hex="A75E"/>
  <anchor x="202" y="0" name="bottom"/>
  <anchor x="343" y="714" name="top"/>
  <anchor x="588" y="714" name="topright"/>
  <outline>
    <contour>
      <point x="25" y="-9" type="line"/>
      <point x="52" y="-9" type="line"/>
      <point x="442" y="723" type="line"/>
      <point x="416" y="723" type="line"/>
    </contour>
    <component base="V"/>
  </outline>
</glyph>
<glyph name="uniA75F" format="2">
  <advance width="391"/>
  <unicode hex="A75F"/>
  <anchor x="140" y="0" name="bottom"/>
  <anchor x="252" y="528" name="top"/>
  <anchor x="427" y="528" name="topright"/>
  <outline>
    <contour>
      <point x="-21" y="-93" type="line"/>
      <point x="7" y="-93" type="line"/>
      <point x="377" y="639" type="line"/>
      <point x="350" y="639" type="line"/>
    </contour>
    <component base="v"/>
  </outline>
</glyph>
<glyph name="uniA765" format="2">
  <advance width="539"/>
  <unicode hex="A765"/>
  <anchor x="167" y="-232" name="bottom"/>
  <anchor x="377" y="760" name="top"/>
  <outline>
    <contour>
      <point x="95" y="636" type="line"/>
      <point x="373" y="636" type="line"/>
      <point x="379" y="661" type="line"/>
      <point x="100" y="661" type="line"/>
    </contour>
    <component base="thorn"/>
  </outline>
</glyph>
<glyph name="uniA767" format="2">
  <advance width="539"/>
  <unicode hex="A767"/>
  <anchor x="167" y="-232" name="bottom"/>
  <anchor x="377" y="760" name="top"/>
  <outline>
    <contour>
      <point x="-72" y="-118" type="line"/>
      <point x="202" y="-118" type="line"/>
      <point x="207" y="-93" type="line"/>
      <point x="-66" y="-93" type="line"/>
    </contour>
    <component base="thorn"/>
  </outline>
</glyph>
<glyph name="uniA771" format="2">
  <advance width="657"/>
  <unicode hex="A771"/>
  <anchor x="197" y="0" name="bottom"/>
  <anchor x="251" y="264" name="center"/>
  <anchor x="378" y="760" name="top"/>
  <anchor x="608" y="760" name="topright"/>
  <outline>
    <contour>
      <point x="384" y="-145" type="line"/>
      <point x="413" y="-145" type="line"/>
      <point x="595" y="164" type="line"/>
      <point x="567" y="164" type="line"/>
    </contour>
    <contour>
      <point x="398" y="0" type="line"/>
      <point x="601" y="0" type="line"/>
      <point x="606" y="25" type="line"/>
      <point x="404" y="25" type="line"/>
    </contour>
    <component base="d"/>
  </outline>
</glyph>
<glyph name="uniA773" format="2">
  <advance width="935"/>
  <unicode hex="A773"/>
  <anchor x="345" y="0" name="bottom"/>
  <anchor x="457" y="528" name="top"/>
  <anchor x="837" y="528" name="topright"/>
  <outline>
    <contour>
      <point x="658" y="-145" type="line"/>
      <point x="687" y="-145" type="line"/>
      <point x="869" y="164" type="line"/>
      <point x="841" y="164" type="line"/>
    </contour>
    <contour>
      <point x="666" y="0" type="line"/>
      <point x="869" y="0" type="line"/>
      <point x="874" y="25" type="line"/>
      <point x="672" y="25" type="line"/>
    </contour>
    <component base="m"/>
  </outline>
</glyph>
<glyph name="uniA77B" format="2">
  <advance width="439"/>
  <unicode hex="A77B"/>
  <outline>
    <contour>
      <point x="121" y="286" type="line"/>
      <point x="365" y="286" type="line"/>
      <point x="370" y="311" type="line"/>
      <point x="127" y="311" type="line"/>
    </contour>
    <component base="uniA784" xOffset="-5"/>
  </outline>
</glyph>
<glyph name="uniA790" format="2">
  <advance width="641"/>
  <unicode hex="A790"/>
  <anchor x="265" y="0" name="bottom"/>
  <anchor x="417" y="714" name="top"/>
  <anchor x="719" y="714" name="topright"/>
  <outline>
    <contour>
      <point x="453" y="-160" type="line"/>
      <point x="485" y="-160" type="line"/>
      <point x="527" y="31" type="line"/>
      <point x="488" y="31" type="line"/>
      <point x="490" y="0" type="line"/>
    </contour>
    <component base="N" xOffset="-2"/>
  </outline>
</glyph>
<glyph name="uniA792" format="2">
  <advance width="564"/>
  <unicode hex="A792"/>
  <anchor x="275" y="0" name="bottom"/>
  <anchor x="437" y="714" name="top"/>
  <anchor x="649" y="714" name="topright"/>
  <outline>
    <contour>
      <point x="35" y="371" type="line"/>
      <point x="365" y="371" type="line"/>
      <point x="372" y="396" type="line"/>
      <point x="42" y="396" type="line"/>
    </contour>
    <component base="C" xOffset="5"/>
  </outline>
</glyph>
<glyph name="uniA7A1" format="2">
  <advance width="568"/>
  <unicode hex="A7A1"/>
  <anchor x="163" y="-240" name="bottom"/>
  <anchor x="326" y="528" name="top"/>
  <anchor x="566" y="528" name="topright"/>
  <outline>
    <contour>
      <point x="-12" y="191" type="line"/>
      <point x="556" y="339" type="line"/>
      <point x="561" y="364" type="line"/>
      <point x="-6" y="217" type="line"/>
    </contour>
    <component base="g"/>
  </outline>
</glyph>
<glyph name="uniA7A7" format="2">
  <advance width="370"/>
  <unicode hex="A7A7"/>
  <anchor x="45" y="0" name="bottom"/>
  <anchor x="252" y="528" name="top"/>
  <anchor x="378" y="528" name="topright"/>
  <outline>
    <contour>
      <point x="-6" y="210" type="line"/>
      <point x="266" y="269" type="line"/>
      <point x="271" y="294" type="line"/>
      <point x="-1" y="234" type="line"/>
    </contour>
    <component base="r"/>
  </outline>
</glyph>
<glyph name="uniA7AE" format="2">
  <advance width="265"/>
  <unicode hex="A7AE"/>
  <outline>
    <contour>
      <point x="7" y="0" type="line"/>
      <point x="158" y="0" type="line"/>
      <point x="162" y="20" type="line"/>
      <point x="100" y="23" type="line"/>
      <point x="202" y="504" type="line"/>
      <point x="265" y="508" type="line"/>
      <point x="269" y="528" type="line"/>
      <point x="118" y="528" type="line"/>
      <point x="114" y="508" type="line"/>
      <point x="176" y="504" type="line"/>
      <point x="74" y="23" type="line"/>
      <point x="11" y="20" type="line"/>
    </contour>
  </outline>
</glyph>
<glyph name="uniA7B9" format="2">
  <advance width="526"/>
  <unicode hex="A7B9"/>
  <anchor x="187" y="0" name="bottom"/>
  <anchor x="329" y="528" name="top"/>
  <anchor x="542" y="528" name="topright"/>
  <outline>
    <contour>
      <point x="-5" y="-27" type="line"/>
      <point x="571" y="539" type="line"/>
      <point x="556" y="555" type="line"/>
      <point x="-20" y="-11" type="line"/>
    </contour>
    <component base="u"/>
  </outline>
</glyph>
<glyph name="uniA7C7" format="2">
  <advance width="642"/>
  <unicode hex="A7C7"/>
  <anchor x="248" y="0" name="bottom"/>
  <anchor x="345" y="357" name="center"/>
  <anchor x="397" y="714" name="top"/>
  <anchor x="712" y="714" name="topright"/>
  <outline>
    <contour>
      <point x="139" y="355" type="line"/>
      <point x="593" y="355" type="line"/>
      <point x="599" y="380" type="line"/>
      <point x="145" y="380" type="line"/>
    </contour>
    <component base="D"/>
  </outline>
</glyph>
<glyph name="uniA7CA" format="2">
  <advance width="402"/>
  <unicode hex="A7CA"/>
  <anchor x="145" y="0" name="bottom"/>
  <anchor x="257" y="528" name="top"/>
  <anchor x="398" y="528" name="topright"/>
  <outline>
    <contour>
      <point x="21" y="263" type="line"/>
      <point x="383" y="263" type="line"/>
      <point x="389" y="288" type="line"/>
      <point x="27" y="288" type="line"/>
    </contour>
    <component base="s"/>
  </outline>
</glyph>
<glyph name="uniAB41" format="2">
  <advance width="885"/>
  <unicode hex="AB41"/>
  <anchor x="515" y="528" name="bottom"/>
  <anchor x="403" y="0" name="top"/>
  <outline>
    <contour>
      <point x="383" y="-37" type="line"/>
      <point x="865" y="551" type="line"/>
      <point x="846" y="566" type="line"/>
      <point x="365" y="-22" type="line"/>
    </contour>
    <component base="oe" xScale="-1" yScale="-1" xOffset="884" yOffset="528"/>
  </outline>
</glyph>
<glyph name="uniAB42" format="2">
  <advance width="885"/>
  <unicode hex="AB42"/>
  <anchor x="515" y="528" name="bottom"/>
  <anchor x="403" y="0" name="top"/>
  <outline>
    <contour>
      <point x="412" y="247" type="line"/>
      <point x="805" y="247" type="line"/>
      <point x="810" y="272" type="line"/>
      <point x="417" y="272" type="line"/>
    </contour>
    <component base="oe" xScale="-1" yScale="-1" xOffset="884" yOffset="528"/>
  </outline>
</glyph>
<glyph name="uniAB44" format="2">
  <advance width="854"/>
  <unicode hex="AB44"/>
  <anchor x="530" y="0" name="bottom"/>
  <anchor x="586" y="264" name="center"/>
  <anchor x="642" y="528" name="top"/>
  <anchor x="890" y="528" name="topright"/>
  <outline>
    <contour>
      <point x="427" y="-45" type="line"/>
      <point x="800" y="559" type="line"/>
      <point x="779" y="571" type="line"/>
      <point x="407" y="-32" type="line"/>
    </contour>
    <component base="uniAB43"/>
  </outline>
</glyph>
<glyph name="uniAB60" format="2">
  <advance width="625"/>
  <unicode hex="AB60"/>
  <outline>
    <contour>
      <point x="374" y="-10" type="curve" smooth="yes"/>
      <point x="504" y="-10"/>
      <point x="560" y="73"/>
      <point x="560" y="163" type="curve" smooth="yes"/>
      <point x="560" y="248"/>
      <point x="510" y="295"/>
      <point x="399" y="295" type="curve" smooth="yes"/>
      <point x="353" y="295"/>
      <point x="302" y="286"/>
      <point x="271" y="276" type="curve"/>
      <point x="324" y="528" type="line"/>
      <point x="298" y="528" type="line"/>
      <point x="245" y="276" type="line" smooth="yes"/>
      <point x="235" y="231"/>
      <point x="226" y="191"/>
      <point x="226" y="145" type="curve" smooth="yes"/>
      <point x="226" y="65"/>
      <point x="261" y="-10"/>
    </contour>
    <contour>
      <point x="30" y="0" type="line"/>
      <point x="56" y="0" type="line"/>
      <point x="168" y="528" type="line"/>
      <point x="142" y="528" type="line"/>
    </contour>
    <contour>
      <point x="376" y="15" type="curve" smooth="yes"/>
      <point x="299" y="15"/>
      <point x="253" y="54"/>
      <point x="253" y="147" type="curve" smooth="yes"/>
      <point x="253" y="177"/>
      <point x="257" y="210"/>
      <point x="265" y="251" type="curve"/>
      <point x="299" y="260"/>
      <point x="344" y="270"/>
      <point x="396" y="270" type="curve" smooth="yes"/>
      <point x="502" y="270"/>
      <point x="533" y="221"/>
      <point x="533" y="161" type="curve" smooth="yes"/>
      <point x="533" y="79"/>
      <point x="477" y="15"/>
    </contour>
  </outline>
</glyph>
<glyph name="uniAB61" format="2">
  <advance width="670"/>
  <unicode hex="AB61"/>
  <anchor x="431" y="0" name="bottom"/>
  <anchor x="522" y="528" name="top"/>
  <anchor x="690" y="528" name="topright"/>
  <outline>
    <contour>
      <point x="32" y="0" type="line"/>
      <point x="58" y="0" type="line"/>
      <point x="114" y="264" type="line"/>
      <point x="277" y="264" type="line"/>
      <point x="284" y="289" type="line"/>
      <point x="119" y="289" type="line"/>
      <point x="170" y="528" type="line"/>
      <point x="144" y="528" type="line"/>
    </contour>
    <component base="e" xOffset="203"/>
  </outline>
</glyph>
<glyph name="uniFE20" format="2">
  <unicode hex="FE20"/>
  <outline>
    <contour>
      <point x="-255" y="587" type="curve"/>
      <point x="-229" y="587" type="line"/>
      <point x="-177" y="675"/>
      <point x="-62" y="740"/>
      <point x="109" y="740" type="curve"/>
      <point x="110" y="766" type="line"/>
      <point x="-63" y="766"/>
      <point x="-194" y="701"/>
    </contour>
  </outline>
</glyph>
<glyph name="uniFE21" format="2">
  <unicode hex="FE21"/>
  <outline>
    <contour>
      <point x="380" y="587" type="curve"/>
      <point x="405" y="587" type="line"/>
      <point x="359" y="713"/>
      <point x="254" y="766"/>
      <point x="109" y="766" type="curve"/>
      <point x="109" y="740" type="line"/>
      <point x="246" y="740"/>
      <point x="332" y="692"/>
    </contour>
  </outline>
</glyph>
<glyph name="uniFE23" format="2">
  <unicode hex="FE23"/>
  <outline>
    <contour>
      <point x="245" y="618" type="curve" smooth="yes"/>
      <point x="328" y="618"/>
      <point x="386" y="640"/>
      <point x="419" y="718" type="curve"/>
      <point x="395" y="718" type="line"/>
      <point x="375" y="680"/>
      <point x="348" y="644"/>
      <point x="254" y="644" type="curve" smooth="yes"/>
      <point x="193" y="644"/>
      <point x="133" y="660"/>
      <point x="87" y="675" type="curve"/>
      <point x="87" y="647" type="line"/>
      <point x="141" y="631"/>
      <point x="182" y="618"/>
    </contour>
  </outline>
</glyph>
<glyph name="combiningconjoiningmacron" format="2">
  <unicode hex="FE26"/>
  <outline>
    <contour>
      <point x="-149" y="614" type="line"/>
      <point x="303" y="614" type="line"/>
      <point x="309" y="639" type="line"/>
      <point x="-143" y="639" type="line"/>
    </contour>
  </outline>
</glyph>
<glyph name="uniFE2E" format="2">
  <unicode hex="FE2E"/>
  <outline>
    <contour>
      <point x="-15" y="588" type="curve" smooth="yes"/>
      <point x="8" y="588"/>
      <point x="22" y="603"/>
      <point x="22" y="628" type="curve"/>
      <point x="203" y="628" type="line"/>
      <point x="204" y="655" type="line"/>
      <point x="6" y="655" type="line" smooth="yes"/>
      <point x="-27" y="655"/>
      <point x="-44" y="639"/>
      <point x="-44" y="616" type="curve" smooth="yes"/>
      <point x="-44" y="604"/>
      <point x="-40" y="588"/>
    </contour>
  </outline>
</glyph>
<glyph name="uniFE2F" format="2">
  <unicode hex="FE2F"/>
  <outline>
    <contour>
      <point x="-38" y="628" type="line"/>
      <point x="159" y="628" type="line" smooth="yes"/>
      <point x="191" y="628"/>
      <point x="209" y="644"/>
      <point x="209" y="666" type="curve" smooth="yes"/>
      <point x="209" y="677"/>
      <point x="204" y="695"/>
      <point x="179" y="695" type="curve" smooth="yes"/>
      <point x="157" y="695"/>
      <point x="143" y="680"/>
      <point x="142" y="655" type="curve"/>
      <point x="-38" y="655" type="line"/>
    </contour>
  </outline>
</glyph>
<glyph name="oslash.sc" format="2">
  <advance width="546"/>
  <anchor x="223" y="-27" name="bottom"/>
  <anchor x="352" y="583" name="top"/>
  <anchor x="278" y="280" name="center"/>
  <anchor x="589" y="559" name="topright"/>
  <outline>
    <contour>
      <point x="54" y="-27" type="line"/>
      <point x="543" y="566" type="line"/>
      <point x="523" y="583" type="line"/>
      <point x="34" y="-10" type="line"/>
    </contour>
    <component base="o.sc"/>
  </outline>
</glyph>
<glyph name="tbar.sc" format="2">
  <advance width="363"/>
  <anchor x="132" y="0" name="bottom"/>
  <anchor x="250" y="559" name="top"/>
  <anchor x="186" y="280" name="center"/>
  <anchor x="406" y="559" name="topright"/>
  <outline>
    <contour>
      <point x="43" y="270" type="line"/>
      <point x="335" y="270" type="line"/>
      <point x="340" y="294" type="line"/>
      <point x="48" y="294" type="line"/>
    </contour>
    <component base="t.sc"/>
  </outline>
</glyph>
<glyph name="zero.slash" format="2">
  <advance width="523"/>
  <outline>
    <contour>
      <point x="91" y="148" type="line"/>
      <point x="499" y="556" type="line"/>
      <point x="485" y="578" type="line"/>
      <point x="77" y="169" type="line"/>
    </contour>
    <component base="zero"/>
  </outline>
</glyph>
